# xmcd
# 
# Track frame offsets:
#     150
#     24620
#     51245
#     67672
#     100595
#     103822
#     119945
#     150097
#     172295
#     191047
#     193907
# 
# Disc length: 2955
# 
# Revision: 3
# Processed by: cddbd v1.5.2PL0 Copyright (c) Steve Scherf et al.
# Submitted via: BonkEnc v1.0.8
# 
DISCID=990b890b
DTITLE=Bill Evans [piano] - Everybody Digs Bill Evans
DYEAR=1958
DGENRE=Jazz
TTITLE0=Minority
TTITLE1=Young And Foolish
TTITLE2=Lucky To Be Me
TTITLE3=Night And Day
TTITLE4=Epilogue
TTITLE5=Tenderly
TTITLE6=Peace Piece
TTITLE7=What Is There To Say?
TTITLE8=Oleo
TTITLE9=Epilogue
TTITLE10=Some Other Time [Mono Version]
EXTD=
EXTT0=
EXTT1=
EXTT2=
EXTT3=
EXTT4=
EXTT5=
EXTT6=
EXTT7=
EXTT8=
EXTT9=
EXTT10=
PLAYORDER=
